<svg xmlns="http://www.w3.org/2000/svg" xmlns:xlink="http://www.w3.org/1999/xlink" width="160" zoomAndPan="magnify" viewBox="0 0 120 44.999999" height="60" preserveAspectRatio="xMidYMid meet" version="1.0"><defs><g/><clipPath id="efbf3404f8"><path d="M 0.160156 8 L 15 8 L 15 21 L 0.160156 21 Z M 0.160156 8 " clip-rule="nonzero"/></clipPath><clipPath id="bbcde00481"><path d="M 29 0.121094 L 34 0.121094 L 34 20 L 29 20 Z M 29 0.121094 " clip-rule="nonzero"/></clipPath><clipPath id="31ab0e6243"><rect x="0" width="100" y="0" height="29"/></clipPath><clipPath id="6f1e6fd474"><path d="M 0.519531 9 L 17.800781 9 L 17.800781 23 L 0.519531 23 Z M 0.519531 9 " clip-rule="nonzero"/></clipPath><clipPath id="c95c414eb5"><rect x="0" width="18" y="0" height="32"/></clipPath><clipPath id="046baef068"><path d="M 2.5625 12.410156 L 14 12.410156 L 14 19.910156 L 2.5625 19.910156 Z M 2.5625 12.410156 " clip-rule="nonzero"/></clipPath><clipPath id="3de79d7d93"><path d="M 14 12.410156 L 25.644531 12.410156 L 25.644531 19.910156 L 14 19.910156 Z M 14 12.410156 " clip-rule="nonzero"/></clipPath><clipPath id="5c26acff76"><path d="M 1 0.480469 L 11.644531 0.480469 L 11.644531 7.910156 L 1 7.910156 Z M 1 0.480469 " clip-rule="nonzero"/></clipPath><clipPath id="c583d0deb6"><rect x="0" width="12" y="0" height="8"/></clipPath></defs><g transform="matrix(1, 0, 0, 1, 20, 9)"><g clip-path="url(#31ab0e6243)"><g clip-path="url(#efbf3404f8)"><g fill="#ffffff" fill-opacity="1"><g transform="translate(0.297296, 19.93124)"><g><path d="M 2.109375 -1.40625 C 1.046875 -2.570312 0.515625 -3.992188 0.515625 -5.671875 C 0.515625 -7.359375 1.046875 -8.785156 2.109375 -9.953125 C 3.171875 -11.128906 4.523438 -11.71875 6.171875 -11.71875 C 7.679688 -11.71875 8.921875 -11.242188 9.890625 -10.296875 L 9.890625 -11.375 L 13.828125 -11.375 L 13.828125 0 L 9.9375 0 L 9.9375 -1.28125 L 9.890625 -1.28125 C 8.921875 -0.207031 7.679688 0.328125 6.171875 0.328125 C 4.523438 0.328125 3.171875 -0.25 2.109375 -1.40625 Z M 5.453125 -7.609375 C 4.941406 -7.109375 4.6875 -6.460938 4.6875 -5.671875 C 4.6875 -4.890625 4.925781 -4.25 5.40625 -3.75 C 5.894531 -3.257812 6.539062 -3.015625 7.34375 -3.015625 C 8.113281 -3.015625 8.742188 -3.265625 9.234375 -3.765625 C 9.734375 -4.273438 9.984375 -4.914062 9.984375 -5.6875 C 9.984375 -6.46875 9.726562 -7.109375 9.21875 -7.609375 C 8.707031 -8.109375 8.082031 -8.359375 7.34375 -8.359375 C 6.59375 -8.359375 5.960938 -8.109375 5.453125 -7.609375 Z M 5.453125 -7.609375 "/></g></g></g></g><g fill="#ffffff" fill-opacity="1"><g transform="translate(14.359973, 19.93124)"><g><path d="M 5.03125 -11.375 L 5.03125 -5.96875 C 5.03125 -4.84375 5.203125 -4.039062 5.546875 -3.5625 C 5.890625 -3.09375 6.46875 -2.859375 7.28125 -2.859375 C 8.09375 -2.859375 8.664062 -3.09375 9 -3.5625 C 9.34375 -4.039062 9.515625 -4.84375 9.515625 -5.96875 L 9.515625 -11.375 L 13.453125 -11.375 L 13.453125 -5.015625 C 13.453125 -3.117188 12.957031 -1.753906 11.96875 -0.921875 C 10.988281 -0.0859375 9.425781 0.328125 7.28125 0.328125 C 5.132812 0.328125 3.566406 -0.0859375 2.578125 -0.921875 C 1.597656 -1.753906 1.109375 -3.117188 1.109375 -5.015625 L 1.109375 -11.375 Z M 5.03125 -11.375 "/></g></g></g><g clip-path="url(#bbcde00481)"><g fill="#ffffff" fill-opacity="1"><g transform="translate(27.823747, 19.93124)"><g><path d="M 1.328125 0 L 1.328125 -19.078125 L 5.265625 -19.078125 L 5.265625 0 Z M 1.328125 0 "/></g></g></g></g><g fill="#ffffff" fill-opacity="1"><g transform="translate(33.324296, 19.93124)"><g><path d="M 2 -11.375 L 2 -15.625 L 5.921875 -15.625 L 5.921875 -11.375 L 8.3125 -11.375 L 8.3125 -8.390625 L 5.921875 -8.390625 L 5.921875 -4.765625 C 5.921875 -3.710938 6.21875 -3.1875 6.8125 -3.1875 C 6.957031 -3.1875 7.109375 -3.21875 7.265625 -3.28125 C 7.429688 -3.34375 7.5625 -3.40625 7.65625 -3.46875 L 7.78125 -3.546875 L 8.765625 -0.375 C 7.921875 0.09375 6.957031 0.328125 5.875 0.328125 C 5.132812 0.328125 4.5 0.203125 3.96875 -0.046875 C 3.4375 -0.304688 3.035156 -0.65625 2.765625 -1.09375 C 2.492188 -1.53125 2.296875 -1.988281 2.171875 -2.46875 C 2.054688 -2.945312 2 -3.460938 2 -4.015625 L 2 -8.390625 L 0.359375 -8.390625 L 0.359375 -11.375 Z M 2 -11.375 "/></g></g></g><g fill="#ffffff" fill-opacity="1"><g transform="translate(40.998656, 19.93124)"><g><path d="M 1.328125 0 L 1.328125 -11.375 L 5.265625 -11.375 L 5.265625 -10.1875 L 5.296875 -10.1875 C 6.316406 -11.207031 7.40625 -11.71875 8.5625 -11.71875 C 9.394531 -11.71875 10.171875 -11.546875 10.890625 -11.203125 C 11.617188 -10.859375 12.164062 -10.332031 12.53125 -9.625 C 13.6875 -11.019531 14.945312 -11.71875 16.3125 -11.71875 C 17.519531 -11.71875 18.5625 -11.375 19.4375 -10.6875 C 20.3125 -10.007812 20.75 -8.945312 20.75 -7.5 L 20.75 0 L 16.8125 0 L 16.8125 -6.4375 C 16.8125 -7.039062 16.644531 -7.546875 16.3125 -7.953125 C 15.976562 -8.359375 15.484375 -8.5625 14.828125 -8.5625 C 14.242188 -8.5625 13.800781 -8.382812 13.5 -8.03125 C 13.195312 -7.6875 13.03125 -7.273438 13 -6.796875 L 13 0 L 9.078125 0 L 9.078125 -6.4375 C 9.078125 -7.039062 8.910156 -7.546875 8.578125 -7.953125 C 8.242188 -8.359375 7.742188 -8.5625 7.078125 -8.5625 C 6.472656 -8.5625 6.019531 -8.375 5.71875 -8 C 5.414062 -7.625 5.265625 -7.175781 5.265625 -6.65625 L 5.265625 0 Z M 1.328125 0 "/></g></g></g><g fill="#13db7a" fill-opacity="1"><g transform="translate(61.772336, 19.93124)"><g><path d="M 2.40625 -1.359375 C 1.144531 -2.484375 0.515625 -3.921875 0.515625 -5.671875 C 0.515625 -7.429688 1.171875 -8.878906 2.484375 -10.015625 C 3.796875 -11.148438 5.421875 -11.71875 7.359375 -11.71875 C 9.273438 -11.71875 10.882812 -11.144531 12.1875 -10 C 13.5 -8.863281 14.15625 -7.421875 14.15625 -5.671875 C 14.15625 -3.929688 13.515625 -2.492188 12.234375 -1.359375 C 10.953125 -0.234375 9.328125 0.328125 7.359375 0.328125 C 5.316406 0.328125 3.664062 -0.234375 2.40625 -1.359375 Z M 5.453125 -7.609375 C 4.941406 -7.109375 4.6875 -6.460938 4.6875 -5.671875 C 4.6875 -4.890625 4.925781 -4.25 5.40625 -3.75 C 5.894531 -3.257812 6.539062 -3.015625 7.34375 -3.015625 C 8.113281 -3.015625 8.742188 -3.265625 9.234375 -3.765625 C 9.734375 -4.273438 9.984375 -4.914062 9.984375 -5.6875 C 9.984375 -6.46875 9.726562 -7.109375 9.21875 -7.609375 C 8.707031 -8.109375 8.082031 -8.359375 7.34375 -8.359375 C 6.59375 -8.359375 5.960938 -8.109375 5.453125 -7.609375 Z M 5.453125 -7.609375 "/></g></g></g><g fill="#ffffff" fill-opacity="1"><g transform="translate(75.355425, 19.93124)"><g><path d="M 1.328125 0 L 1.328125 -11.375 L 5.265625 -11.375 L 5.265625 -10.1875 L 5.296875 -10.1875 C 6.316406 -11.207031 7.40625 -11.71875 8.5625 -11.71875 C 9.125 -11.71875 9.679688 -11.640625 10.234375 -11.484375 C 10.796875 -11.335938 11.332031 -11.109375 11.84375 -10.796875 C 12.351562 -10.492188 12.765625 -10.054688 13.078125 -9.484375 C 13.398438 -8.910156 13.5625 -8.25 13.5625 -7.5 L 13.5625 0 L 9.625 0 L 9.625 -6.4375 C 9.625 -7.03125 9.4375 -7.546875 9.0625 -7.984375 C 8.6875 -8.429688 8.195312 -8.65625 7.59375 -8.65625 C 7 -8.65625 6.460938 -8.425781 5.984375 -7.96875 C 5.503906 -7.507812 5.265625 -7 5.265625 -6.4375 L 5.265625 0 Z M 1.328125 0 "/></g></g></g><g fill="#ffffff" fill-opacity="1"><g transform="translate(88.930117, 19.93124)"><g><path d="M 2 -11.375 L 2 -15.625 L 5.921875 -15.625 L 5.921875 -11.375 L 8.3125 -11.375 L 8.3125 -8.390625 L 5.921875 -8.390625 L 5.921875 -4.765625 C 5.921875 -3.710938 6.21875 -3.1875 6.8125 -3.1875 C 6.957031 -3.1875 7.109375 -3.21875 7.265625 -3.28125 C 7.429688 -3.34375 7.5625 -3.40625 7.65625 -3.46875 L 7.78125 -3.546875 L 8.765625 -0.375 C 7.921875 0.09375 6.957031 0.328125 5.875 0.328125 C 5.132812 0.328125 4.5 0.203125 3.96875 -0.046875 C 3.4375 -0.304688 3.035156 -0.65625 2.765625 -1.09375 C 2.492188 -1.53125 2.296875 -1.988281 2.171875 -2.46875 C 2.054688 -2.945312 2 -3.460938 2 -4.015625 L 2 -8.390625 L 0.359375 -8.390625 L 0.359375 -11.375 Z M 2 -11.375 "/></g></g></g></g></g><g transform="matrix(1, 0, 0, 1, 5, 8)"><g clip-path="url(#c95c414eb5)"><g clip-path="url(#6f1e6fd474)"><g fill="#13db7a" fill-opacity="1"><g transform="translate(1.418255, 22.511341)"><g><path d="M 4.6875 -12.671875 L 7.78125 -5.78125 L 10.875 -12.671875 L 16.0625 -12.671875 L 9.265625 0 L 6.296875 0 L -0.5 -12.671875 Z M 4.6875 -12.671875 "/></g></g></g></g></g></g><g clip-path="url(#046baef068)"><path fill="#13db7a" d="M 13.101562 24.773438 C 12.492188 24.238281 12.003906 23.609375 11.632812 22.890625 C 11.265625 22.167969 11.042969 21.402344 10.96875 20.597656 L 11.121094 17.90625 L 10.941406 17.855469 C 10.238281 17.660156 9.472656 17.382812 8.753906 17.101562 C 7.953125 16.792969 7.171875 16.4375 6.414062 16.039062 C 5.644531 15.636719 4.921875 15.167969 4.242188 14.625 C 3.5 14.070312 2.941406 13.371094 2.5625 12.527344 C 2.6875 13.527344 3.042969 14.4375 3.625 15.261719 C 4.164062 16.089844 4.777344 16.859375 5.460938 17.570312 C 6.132812 18.277344 6.84375 18.941406 7.570312 19.570312 L 7.90625 19.832031 C 7.769531 20.144531 7.65625 20.464844 7.570312 20.796875 C 7.417969 21.308594 7.351562 21.832031 7.375 22.371094 C 7.402344 22.984375 7.515625 23.582031 7.710938 24.164062 C 8.027344 25.078125 8.457031 25.933594 9 26.730469 C 9.164062 26.964844 9.335938 27.1875 9.5 27.402344 L 9.882812 27.371094 C 13.515625 26.394531 13.101562 24.773438 13.101562 24.773438 Z M 13.101562 24.773438 " fill-opacity="1" fill-rule="nonzero"/></g><g clip-path="url(#3de79d7d93)"><g transform="matrix(1, 0, 0, 1, 14, 12)"><g clip-path="url(#c583d0deb6)"><g clip-path="url(#5c26acff76)"><path fill="#13db7a" d="M 1.304688 12.773438 C 1.914062 12.238281 2.402344 11.609375 2.773438 10.890625 C 3.140625 10.167969 3.363281 9.402344 3.4375 8.597656 L 3.285156 5.90625 L 3.464844 5.855469 C 4.167969 5.660156 4.933594 5.382812 5.652344 5.101562 C 6.453125 4.792969 7.230469 4.4375 7.992188 4.039062 C 8.761719 3.636719 9.484375 3.167969 10.164062 2.625 C 10.902344 2.070312 11.464844 1.371094 11.84375 0.527344 C 11.71875 1.527344 11.363281 2.4375 10.78125 3.261719 C 10.242188 4.089844 9.628906 4.859375 8.945312 5.570312 C 8.273438 6.277344 7.558594 6.941406 6.832031 7.570312 L 6.496094 7.832031 C 6.636719 8.144531 6.75 8.464844 6.832031 8.796875 C 6.988281 9.308594 7.050781 9.832031 7.03125 10.371094 C 7.003906 10.984375 6.890625 11.582031 6.695312 12.164062 C 6.378906 13.078125 5.949219 13.933594 5.40625 14.730469 C 5.242188 14.964844 5.070312 15.1875 4.90625 15.402344 L 4.523438 15.371094 C 0.890625 14.394531 1.304688 12.773438 1.304688 12.773438 Z M 1.304688 12.773438 " fill-opacity="1" fill-rule="nonzero"/></g></g></g></g></svg>