<svg xmlns="http://www.w3.org/2000/svg" xmlns:xlink="http://www.w3.org/1999/xlink" width="160" zoomAndPan="magnify" viewBox="0 0 120 44.999999" height="60" preserveAspectRatio="xMidYMid meet" version="1.0"><defs><g/><clipPath id="72d512e796"><rect x="0" width="83" y="0" height="9"/></clipPath><clipPath id="9486c6a8cb"><path d="M 90 25.238281 L 119.21875 25.238281 L 119.21875 37.238281 L 90 37.238281 Z M 90 25.238281 " clip-rule="nonzero"/></clipPath><clipPath id="60f739c435"><rect x="0" width="95" y="0" height="27"/></clipPath><clipPath id="06ab7f1909"><path d="M 0.558594 9 L 17 9 L 17 23 L 0.558594 23 Z M 0.558594 9 " clip-rule="nonzero"/></clipPath><clipPath id="be80011172"><rect x="0" width="18" y="0" height="31"/></clipPath><clipPath id="c1835c3090"><path d="M 1.757812 7.757812 L 12 7.757812 L 12 14.507812 L 1.757812 14.507812 Z M 1.757812 7.757812 " clip-rule="nonzero"/></clipPath><clipPath id="3d30ef59a8"><path d="M 13 7.757812 L 23.613281 7.757812 L 23.613281 14.507812 L 13 14.507812 Z M 13 7.757812 " clip-rule="nonzero"/></clipPath><clipPath id="a052d20bc3"><path d="M 0.679688 0.757812 L 10.613281 0.757812 L 10.613281 7.507812 L 0.679688 7.507812 Z M 0.679688 0.757812 " clip-rule="nonzero"/></clipPath><clipPath id="698bd95984"><rect x="0" width="11" y="0" height="8"/></clipPath></defs><g transform="matrix(1, 0, 0, 1, 10, 27)"><g clip-path="url(#72d512e796)"><g fill="#e8e7e3" fill-opacity="1"><g transform="translate(0.636512, 6.11051)"><g><path d="M 2.1875 0 L 0.90625 -3.359375 L 0.890625 -3.359375 C 0.910156 -3.085938 0.921875 -2.769531 0.921875 -2.40625 L 0.921875 0 L 0.515625 0 L 0.515625 -3.78125 L 1.1875 -3.78125 L 2.375 -0.65625 L 2.40625 -0.65625 L 3.609375 -3.78125 L 4.265625 -3.78125 L 4.265625 0 L 3.828125 0 L 3.828125 -2.4375 C 3.828125 -2.71875 3.835938 -3.019531 3.859375 -3.34375 L 3.84375 -3.34375 L 2.546875 0 Z M 2.1875 0 "/></g></g></g><g fill="#e8e7e3" fill-opacity="1"><g transform="translate(6.808548, 6.11051)"><g><path d="M 2.890625 0 L 2.421875 -1.203125 L 0.90625 -1.203125 L 0.4375 0 L 0 0 L 1.5 -3.796875 L 1.859375 -3.796875 L 3.359375 0 Z M 2.28125 -1.59375 L 1.84375 -2.765625 C 1.789062 -2.921875 1.734375 -3.101562 1.671875 -3.3125 C 1.628906 -3.144531 1.578125 -2.960938 1.515625 -2.765625 L 1.0625 -1.59375 Z M 2.28125 -1.59375 "/></g></g></g><g fill="#e8e7e3" fill-opacity="1"><g transform="translate(11.550178, 6.11051)"><g><path d="M 2.65625 -1 C 2.65625 -0.664062 2.53125 -0.40625 2.28125 -0.21875 C 2.039062 -0.0390625 1.71875 0.046875 1.3125 0.046875 C 0.863281 0.046875 0.519531 -0.0078125 0.28125 -0.125 L 0.28125 -0.546875 C 0.425781 -0.484375 0.59375 -0.429688 0.78125 -0.390625 C 0.96875 -0.347656 1.148438 -0.328125 1.328125 -0.328125 C 1.617188 -0.328125 1.835938 -0.382812 1.984375 -0.5 C 2.128906 -0.613281 2.203125 -0.769531 2.203125 -0.96875 C 2.203125 -1.09375 2.175781 -1.195312 2.125 -1.28125 C 2.070312 -1.363281 1.984375 -1.441406 1.859375 -1.515625 C 1.742188 -1.585938 1.554688 -1.671875 1.296875 -1.765625 C 0.953125 -1.890625 0.703125 -2.035156 0.546875 -2.203125 C 0.398438 -2.378906 0.328125 -2.601562 0.328125 -2.875 C 0.328125 -3.164062 0.4375 -3.394531 0.65625 -3.5625 C 0.875 -3.738281 1.160156 -3.828125 1.515625 -3.828125 C 1.890625 -3.828125 2.238281 -3.757812 2.5625 -3.625 L 2.421875 -3.25 C 2.109375 -3.375 1.804688 -3.4375 1.515625 -3.4375 C 1.273438 -3.4375 1.085938 -3.382812 0.953125 -3.28125 C 0.828125 -3.1875 0.765625 -3.050781 0.765625 -2.875 C 0.765625 -2.738281 0.785156 -2.628906 0.828125 -2.546875 C 0.878906 -2.460938 0.960938 -2.382812 1.078125 -2.3125 C 1.191406 -2.25 1.367188 -2.175781 1.609375 -2.09375 C 2.003906 -1.945312 2.273438 -1.789062 2.421875 -1.625 C 2.578125 -1.46875 2.65625 -1.257812 2.65625 -1 Z M 2.65625 -1 "/></g></g></g><g fill="#e8e7e3" fill-opacity="1"><g transform="translate(15.846906, 6.11051)"><g><path d="M 1.6875 0 L 1.25 0 L 1.25 -3.390625 L 0.046875 -3.390625 L 0.046875 -3.78125 L 2.875 -3.78125 L 2.875 -3.390625 L 1.6875 -3.390625 Z M 1.6875 0 "/></g></g></g><g fill="#e8e7e3" fill-opacity="1"><g transform="translate(20.166915, 6.11051)"><g><path d="M 2.625 0 L 0.515625 0 L 0.515625 -3.78125 L 2.625 -3.78125 L 2.625 -3.390625 L 0.953125 -3.390625 L 0.953125 -2.171875 L 2.53125 -2.171875 L 2.53125 -1.78125 L 0.953125 -1.78125 L 0.953125 -0.390625 L 2.625 -0.390625 Z M 2.625 0 "/></g></g></g><g fill="#e8e7e3" fill-opacity="1"><g transform="translate(24.502443, 6.11051)"><g><path d="M 0.953125 -1.578125 L 0.953125 0 L 0.515625 0 L 0.515625 -3.78125 L 1.5625 -3.78125 C 2.019531 -3.78125 2.359375 -3.691406 2.578125 -3.515625 C 2.804688 -3.335938 2.921875 -3.070312 2.921875 -2.71875 C 2.921875 -2.21875 2.664062 -1.878906 2.15625 -1.703125 L 3.1875 0 L 2.65625 0 L 1.75 -1.578125 Z M 0.953125 -1.953125 L 1.5625 -1.953125 C 1.875 -1.953125 2.101562 -2.007812 2.25 -2.125 C 2.394531 -2.25 2.46875 -2.4375 2.46875 -2.6875 C 2.46875 -2.9375 2.390625 -3.113281 2.234375 -3.21875 C 2.085938 -3.332031 1.851562 -3.390625 1.53125 -3.390625 L 0.953125 -3.390625 Z M 0.953125 -1.953125 "/></g></g></g><g fill="#e8e7e3" fill-opacity="1"><g transform="translate(29.166473, 6.11051)"><g/></g></g><g fill="#e8e7e3" fill-opacity="1"><g transform="translate(31.931916, 6.11051)"><g><path d="M 1.6875 0 L 1.25 0 L 1.25 -3.390625 L 0.046875 -3.390625 L 0.046875 -3.78125 L 2.875 -3.78125 L 2.875 -3.390625 L 1.6875 -3.390625 Z M 1.6875 0 "/></g></g></g><g fill="#e8e7e3" fill-opacity="1"><g transform="translate(36.251924, 6.11051)"><g><path d="M 3.390625 0 L 2.953125 0 L 2.953125 -1.78125 L 0.953125 -1.78125 L 0.953125 0 L 0.515625 0 L 0.515625 -3.78125 L 0.953125 -3.78125 L 0.953125 -2.171875 L 2.953125 -2.171875 L 2.953125 -3.78125 L 3.390625 -3.78125 Z M 3.390625 0 "/></g></g></g><g fill="#e8e7e3" fill-opacity="1"><g transform="translate(41.549679, 6.11051)"><g><path d="M 2.625 0 L 0.515625 0 L 0.515625 -3.78125 L 2.625 -3.78125 L 2.625 -3.390625 L 0.953125 -3.390625 L 0.953125 -2.171875 L 2.53125 -2.171875 L 2.53125 -1.78125 L 0.953125 -1.78125 L 0.953125 -0.390625 L 2.625 -0.390625 Z M 2.625 0 "/></g></g></g><g fill="#e8e7e3" fill-opacity="1"><g transform="translate(45.885207, 6.11051)"><g/></g></g><g fill="#e8e7e3" fill-opacity="1"><g transform="translate(48.65065, 6.11051)"><g><path d="M 2.1875 0 L 0.90625 -3.359375 L 0.890625 -3.359375 C 0.910156 -3.085938 0.921875 -2.769531 0.921875 -2.40625 L 0.921875 0 L 0.515625 0 L 0.515625 -3.78125 L 1.1875 -3.78125 L 2.375 -0.65625 L 2.40625 -0.65625 L 3.609375 -3.78125 L 4.265625 -3.78125 L 4.265625 0 L 3.828125 0 L 3.828125 -2.4375 C 3.828125 -2.71875 3.835938 -3.019531 3.859375 -3.34375 L 3.84375 -3.34375 L 2.546875 0 Z M 2.1875 0 "/></g></g></g><g fill="#e8e7e3" fill-opacity="1"><g transform="translate(54.822687, 6.11051)"><g><path d="M 2.890625 0 L 2.421875 -1.203125 L 0.90625 -1.203125 L 0.4375 0 L 0 0 L 1.5 -3.796875 L 1.859375 -3.796875 L 3.359375 0 Z M 2.28125 -1.59375 L 1.84375 -2.765625 C 1.789062 -2.921875 1.734375 -3.101562 1.671875 -3.3125 C 1.628906 -3.144531 1.578125 -2.960938 1.515625 -2.765625 L 1.0625 -1.59375 Z M 2.28125 -1.59375 "/></g></g></g><g fill="#e8e7e3" fill-opacity="1"><g transform="translate(59.564316, 6.11051)"><g><path d="M 0.953125 -1.578125 L 0.953125 0 L 0.515625 0 L 0.515625 -3.78125 L 1.5625 -3.78125 C 2.019531 -3.78125 2.359375 -3.691406 2.578125 -3.515625 C 2.804688 -3.335938 2.921875 -3.070312 2.921875 -2.71875 C 2.921875 -2.21875 2.664062 -1.878906 2.15625 -1.703125 L 3.1875 0 L 2.65625 0 L 1.75 -1.578125 Z M 0.953125 -1.953125 L 1.5625 -1.953125 C 1.875 -1.953125 2.101562 -2.007812 2.25 -2.125 C 2.394531 -2.25 2.46875 -2.4375 2.46875 -2.6875 C 2.46875 -2.9375 2.390625 -3.113281 2.234375 -3.21875 C 2.085938 -3.332031 1.851562 -3.390625 1.53125 -3.390625 L 0.953125 -3.390625 Z M 0.953125 -1.953125 "/></g></g></g><g fill="#e8e7e3" fill-opacity="1"><g transform="translate(64.228346, 6.11051)"><g><path d="M 3.25 0 L 2.734375 0 L 1.359375 -1.828125 L 0.953125 -1.484375 L 0.953125 0 L 0.515625 0 L 0.515625 -3.78125 L 0.953125 -3.78125 L 0.953125 -1.90625 L 2.671875 -3.78125 L 3.1875 -3.78125 L 1.671875 -2.140625 Z M 3.25 0 "/></g></g></g><g fill="#e8e7e3" fill-opacity="1"><g transform="translate(68.869097, 6.11051)"><g><path d="M 2.625 0 L 0.515625 0 L 0.515625 -3.78125 L 2.625 -3.78125 L 2.625 -3.390625 L 0.953125 -3.390625 L 0.953125 -2.171875 L 2.53125 -2.171875 L 2.53125 -1.78125 L 0.953125 -1.78125 L 0.953125 -0.390625 L 2.625 -0.390625 Z M 2.625 0 "/></g></g></g><g fill="#e8e7e3" fill-opacity="1"><g transform="translate(73.204625, 6.11051)"><g><path d="M 1.6875 0 L 1.25 0 L 1.25 -3.390625 L 0.046875 -3.390625 L 0.046875 -3.78125 L 2.875 -3.78125 L 2.875 -3.390625 L 1.6875 -3.390625 Z M 1.6875 0 "/></g></g></g><g fill="#e8e7e3" fill-opacity="1"><g transform="translate(77.524633, 6.11051)"><g><path d="M 2.65625 -1 C 2.65625 -0.664062 2.53125 -0.40625 2.28125 -0.21875 C 2.039062 -0.0390625 1.71875 0.046875 1.3125 0.046875 C 0.863281 0.046875 0.519531 -0.0078125 0.28125 -0.125 L 0.28125 -0.546875 C 0.425781 -0.484375 0.59375 -0.429688 0.78125 -0.390625 C 0.96875 -0.347656 1.148438 -0.328125 1.328125 -0.328125 C 1.617188 -0.328125 1.835938 -0.382812 1.984375 -0.5 C 2.128906 -0.613281 2.203125 -0.769531 2.203125 -0.96875 C 2.203125 -1.09375 2.175781 -1.195312 2.125 -1.28125 C 2.070312 -1.363281 1.984375 -1.441406 1.859375 -1.515625 C 1.742188 -1.585938 1.554688 -1.671875 1.296875 -1.765625 C 0.953125 -1.890625 0.703125 -2.035156 0.546875 -2.203125 C 0.398438 -2.378906 0.328125 -2.601562 0.328125 -2.875 C 0.328125 -3.164062 0.4375 -3.394531 0.65625 -3.5625 C 0.875 -3.738281 1.160156 -3.828125 1.515625 -3.828125 C 1.890625 -3.828125 2.238281 -3.757812 2.5625 -3.625 L 2.421875 -3.25 C 2.109375 -3.375 1.804688 -3.4375 1.515625 -3.4375 C 1.273438 -3.4375 1.085938 -3.382812 0.953125 -3.28125 C 0.828125 -3.1875 0.765625 -3.050781 0.765625 -2.875 C 0.765625 -2.738281 0.785156 -2.628906 0.828125 -2.546875 C 0.878906 -2.460938 0.960938 -2.382812 1.078125 -2.3125 C 1.191406 -2.25 1.367188 -2.175781 1.609375 -2.09375 C 2.003906 -1.945312 2.273438 -1.789062 2.421875 -1.625 C 2.578125 -1.46875 2.65625 -1.257812 2.65625 -1 Z M 2.65625 -1 "/></g></g></g></g></g><g clip-path="url(#9486c6a8cb)"><path fill="#13db7a" d="M 119.136719 25.238281 L 113.136719 27.121094 L 113.910156 28.199219 L 105.296875 34.050781 L 99.867188 28.726562 L 90.074219 36.125 L 90.738281 37.003906 L 99.773438 30.171875 L 105.171875 35.46875 L 114.546875 29.09375 L 115.257812 30.089844 Z M 119.136719 25.238281 " fill-opacity="1" fill-rule="nonzero"/></g><path stroke-linecap="round" transform="matrix(0.75, -0.000000000000000093, 0.000000000000000093, 0.75, 1.009436, 36.2532)" fill="none" stroke-linejoin="miter" d="M 0.997836 1.000942 L 119.206177 1.000942 " stroke="#13db7a" stroke-width="2" stroke-opacity="1" stroke-miterlimit="4"/><g transform="matrix(1, 0, 0, 1, 18, 6)"><g clip-path="url(#60f739c435)"><g fill="#e8e7e3" fill-opacity="1"><g transform="translate(0.671517, 19.126591)"><g><path d="M 2 -1.34375 C 0.988281 -2.445312 0.484375 -3.800781 0.484375 -5.40625 C 0.484375 -7.019531 0.988281 -8.382812 2 -9.5 C 3.019531 -10.613281 4.3125 -11.171875 5.875 -11.171875 C 7.320312 -11.171875 8.507812 -10.71875 9.4375 -9.8125 L 9.4375 -10.859375 L 13.1875 -10.859375 L 13.1875 0 L 9.484375 0 L 9.484375 -1.234375 L 9.4375 -1.234375 C 8.507812 -0.203125 7.320312 0.3125 5.875 0.3125 C 4.3125 0.3125 3.019531 -0.238281 2 -1.34375 Z M 5.1875 -7.25 C 4.707031 -6.769531 4.46875 -6.15625 4.46875 -5.40625 C 4.46875 -4.664062 4.695312 -4.054688 5.15625 -3.578125 C 5.625 -3.109375 6.238281 -2.875 7 -2.875 C 7.738281 -2.875 8.34375 -3.113281 8.8125 -3.59375 C 9.28125 -4.070312 9.515625 -4.679688 9.515625 -5.421875 C 9.515625 -6.160156 9.269531 -6.769531 8.78125 -7.25 C 8.300781 -7.726562 7.707031 -7.96875 7 -7.96875 C 6.28125 -7.96875 5.675781 -7.726562 5.1875 -7.25 Z M 5.1875 -7.25 "/></g></g></g><g fill="#e8e7e3" fill-opacity="1"><g transform="translate(14.086536, 19.126591)"><g><path d="M 4.796875 -10.859375 L 4.796875 -5.6875 C 4.796875 -4.613281 4.957031 -3.851562 5.28125 -3.40625 C 5.613281 -2.957031 6.164062 -2.734375 6.9375 -2.734375 C 7.71875 -2.734375 8.269531 -2.957031 8.59375 -3.40625 C 8.914062 -3.851562 9.078125 -4.613281 9.078125 -5.6875 L 9.078125 -10.859375 L 12.828125 -10.859375 L 12.828125 -4.78125 C 12.828125 -2.976562 12.351562 -1.675781 11.40625 -0.875 C 10.46875 -0.0820312 8.976562 0.3125 6.9375 0.3125 C 4.894531 0.3125 3.40625 -0.0820312 2.46875 -0.875 C 1.53125 -1.675781 1.0625 -2.976562 1.0625 -4.78125 L 1.0625 -10.859375 Z M 4.796875 -10.859375 "/></g></g></g><g fill="#e8e7e3" fill-opacity="1"><g transform="translate(26.930248, 19.126591)"><g><path d="M 1.265625 0 L 1.265625 -18.1875 L 5.015625 -18.1875 L 5.015625 0 Z M 1.265625 0 "/></g></g></g><g fill="#e8e7e3" fill-opacity="1"><g transform="translate(32.177695, 19.126591)"><g><path d="M 1.90625 -10.859375 L 1.90625 -14.890625 L 5.65625 -14.890625 L 5.65625 -10.859375 L 7.9375 -10.859375 L 7.9375 -8 L 5.65625 -8 L 5.65625 -4.546875 C 5.65625 -3.546875 5.9375 -3.046875 6.5 -3.046875 C 6.632812 -3.046875 6.78125 -3.070312 6.9375 -3.125 C 7.09375 -3.1875 7.210938 -3.242188 7.296875 -3.296875 L 7.421875 -3.390625 L 8.359375 -0.359375 C 7.554688 0.0859375 6.640625 0.3125 5.609375 0.3125 C 4.898438 0.3125 4.289062 0.191406 3.78125 -0.046875 C 3.28125 -0.296875 2.898438 -0.628906 2.640625 -1.046875 C 2.378906 -1.460938 2.191406 -1.898438 2.078125 -2.359375 C 1.960938 -2.816406 1.90625 -3.304688 1.90625 -3.828125 L 1.90625 -8 L 0.34375 -8 L 0.34375 -10.859375 Z M 1.90625 -10.859375 "/></g></g></g><g fill="#e8e7e3" fill-opacity="1"><g transform="translate(39.498774, 19.126591)"><g><path d="M 1.265625 0 L 1.265625 -10.859375 L 5.015625 -10.859375 L 5.015625 -9.703125 L 5.0625 -9.703125 C 6.03125 -10.679688 7.066406 -11.171875 8.171875 -11.171875 C 8.953125 -11.171875 9.6875 -11.007812 10.375 -10.6875 C 11.070312 -10.363281 11.597656 -9.863281 11.953125 -9.1875 C 13.054688 -10.507812 14.253906 -11.171875 15.546875 -11.171875 C 16.703125 -11.171875 17.695312 -10.84375 18.53125 -10.1875 C 19.363281 -9.539062 19.78125 -8.53125 19.78125 -7.15625 L 19.78125 0 L 16.03125 0 L 16.03125 -6.140625 C 16.03125 -6.710938 15.867188 -7.191406 15.546875 -7.578125 C 15.234375 -7.972656 14.757812 -8.171875 14.125 -8.171875 C 13.582031 -8.171875 13.164062 -8.003906 12.875 -7.671875 C 12.582031 -7.335938 12.421875 -6.9375 12.390625 -6.46875 L 12.390625 0 L 8.65625 0 L 8.65625 -6.140625 C 8.65625 -6.710938 8.492188 -7.191406 8.171875 -7.578125 C 7.859375 -7.972656 7.382812 -8.171875 6.75 -8.171875 C 6.164062 -8.171875 5.726562 -7.988281 5.4375 -7.625 C 5.15625 -7.269531 5.015625 -6.84375 5.015625 -6.34375 L 5.015625 0 Z M 1.265625 0 "/></g></g></g><g fill="#13db7a" fill-opacity="1"><g transform="translate(59.304237, 19.126591)"><g><path d="M 2.296875 -1.28125 C 1.085938 -2.351562 0.484375 -3.726562 0.484375 -5.40625 C 0.484375 -7.09375 1.109375 -8.472656 2.359375 -9.546875 C 3.617188 -10.628906 5.175781 -11.171875 7.03125 -11.171875 C 8.84375 -11.171875 10.375 -10.625 11.625 -9.53125 C 12.875 -8.445312 13.5 -7.070312 13.5 -5.40625 C 13.5 -3.75 12.890625 -2.378906 11.671875 -1.296875 C 10.453125 -0.222656 8.90625 0.3125 7.03125 0.3125 C 5.082031 0.3125 3.503906 -0.21875 2.296875 -1.28125 Z M 5.1875 -7.25 C 4.707031 -6.769531 4.46875 -6.15625 4.46875 -5.40625 C 4.46875 -4.664062 4.695312 -4.054688 5.15625 -3.578125 C 5.625 -3.109375 6.238281 -2.875 7 -2.875 C 7.738281 -2.875 8.34375 -3.113281 8.8125 -3.59375 C 9.28125 -4.070312 9.515625 -4.679688 9.515625 -5.421875 C 9.515625 -6.160156 9.269531 -6.769531 8.78125 -7.25 C 8.300781 -7.726562 7.707031 -7.96875 7 -7.96875 C 6.28125 -7.96875 5.675781 -7.726562 5.1875 -7.25 Z M 5.1875 -7.25 "/></g></g></g><g fill="#e8e7e3" fill-opacity="1"><g transform="translate(72.255325, 19.126591)"><g><path d="M 1.265625 0 L 1.265625 -10.859375 L 5.015625 -10.859375 L 5.015625 -9.703125 L 5.0625 -9.703125 C 6.03125 -10.679688 7.066406 -11.171875 8.171875 -11.171875 C 8.703125 -11.171875 9.234375 -11.097656 9.765625 -10.953125 C 10.296875 -10.816406 10.800781 -10.597656 11.28125 -10.296875 C 11.769531 -10.003906 12.164062 -9.585938 12.46875 -9.046875 C 12.769531 -8.503906 12.921875 -7.875 12.921875 -7.15625 L 12.921875 0 L 9.1875 0 L 9.1875 -6.140625 C 9.1875 -6.703125 9.003906 -7.191406 8.640625 -7.609375 C 8.285156 -8.035156 7.816406 -8.25 7.234375 -8.25 C 6.671875 -8.25 6.160156 -8.03125 5.703125 -7.59375 C 5.242188 -7.15625 5.015625 -6.671875 5.015625 -6.140625 L 5.015625 0 Z M 1.265625 0 "/></g></g></g><g fill="#e8e7e3" fill-opacity="1"><g transform="translate(85.204834, 19.126591)"><g><path d="M 1.90625 -10.859375 L 1.90625 -14.890625 L 5.65625 -14.890625 L 5.65625 -10.859375 L 7.9375 -10.859375 L 7.9375 -8 L 5.65625 -8 L 5.65625 -4.546875 C 5.65625 -3.546875 5.9375 -3.046875 6.5 -3.046875 C 6.632812 -3.046875 6.78125 -3.070312 6.9375 -3.125 C 7.09375 -3.1875 7.210938 -3.242188 7.296875 -3.296875 L 7.421875 -3.390625 L 8.359375 -0.359375 C 7.554688 0.0859375 6.640625 0.3125 5.609375 0.3125 C 4.898438 0.3125 4.289062 0.191406 3.78125 -0.046875 C 3.28125 -0.296875 2.898438 -0.628906 2.640625 -1.046875 C 2.378906 -1.460938 2.191406 -1.898438 2.078125 -2.359375 C 1.960938 -2.816406 1.90625 -3.304688 1.90625 -3.828125 L 1.90625 -8 L 0.34375 -8 L 0.34375 -10.859375 Z M 1.90625 -10.859375 "/></g></g></g></g></g><g transform="matrix(1, 0, 0, 1, 4, 3)"><g clip-path="url(#be80011172)"><g clip-path="url(#06ab7f1909)"><g fill="#13db7a" fill-opacity="1"><g transform="translate(1.436843, 22.019633)"><g><path d="M 4.484375 -12.09375 L 7.421875 -5.515625 L 10.375 -12.09375 L 15.3125 -12.09375 L 8.828125 0 L 6.015625 0 L -0.46875 -12.09375 Z M 4.484375 -12.09375 "/></g></g></g></g></g></g><g clip-path="url(#c1835c3090)"><path fill="#13db7a" d="M 11.808594 19.550781 C 11.226562 19.039062 10.761719 18.441406 10.410156 17.753906 C 10.058594 17.066406 9.847656 16.335938 9.777344 15.566406 L 9.917969 13.003906 L 9.75 12.953125 C 9.078125 12.769531 8.347656 12.5 7.664062 12.234375 C 6.898438 11.9375 6.15625 11.601562 5.433594 11.21875 C 4.699219 10.835938 4.007812 10.386719 3.363281 9.871094 C 2.65625 9.34375 2.121094 8.675781 1.757812 7.871094 C 1.878906 8.824219 2.21875 9.695312 2.773438 10.480469 C 3.289062 11.269531 3.871094 12.003906 4.523438 12.679688 C 5.164062 13.355469 5.84375 13.988281 6.535156 14.589844 L 6.859375 14.839844 C 6.726562 15.136719 6.617188 15.441406 6.535156 15.757812 C 6.390625 16.246094 6.328125 16.746094 6.347656 17.257812 C 6.375 17.84375 6.484375 18.414062 6.667969 18.96875 C 6.972656 19.839844 7.382812 20.65625 7.898438 21.414062 C 8.054688 21.640625 8.21875 21.851562 8.375 22.058594 L 8.738281 22.023438 C 12.207031 21.09375 11.808594 19.550781 11.808594 19.550781 Z M 11.808594 19.550781 " fill-opacity="1" fill-rule="nonzero"/></g><g clip-path="url(#3d30ef59a8)"><g transform="matrix(1, 0, 0, 1, 13, 7)"><g clip-path="url(#698bd95984)"><g clip-path="url(#a052d20bc3)"><path fill="#13db7a" d="M 0.914062 12.550781 C 1.496094 12.039062 1.960938 11.441406 2.3125 10.753906 C 2.664062 10.066406 2.875 9.335938 2.949219 8.566406 L 2.804688 6.003906 L 2.972656 5.953125 C 3.644531 5.769531 4.375 5.5 5.0625 5.234375 C 5.824219 4.9375 6.566406 4.601562 7.289062 4.21875 C 8.023438 3.835938 8.714844 3.386719 9.359375 2.871094 C 10.066406 2.34375 10.601562 1.675781 10.964844 0.871094 C 10.84375 1.824219 10.507812 2.695312 9.949219 3.480469 C 9.4375 4.269531 8.851562 5.003906 8.199219 5.679688 C 7.558594 6.355469 6.878906 6.988281 6.1875 7.589844 L 5.867188 7.839844 C 6 8.136719 6.105469 8.441406 6.1875 8.757812 C 6.332031 9.246094 6.394531 9.746094 6.375 10.257812 C 6.347656 10.84375 6.238281 11.414062 6.054688 11.96875 C 5.75 12.839844 5.339844 13.65625 4.824219 14.414062 C 4.667969 14.640625 4.503906 14.851562 4.347656 15.058594 L 3.984375 15.023438 C 0.515625 14.09375 0.914062 12.550781 0.914062 12.550781 Z M 0.914062 12.550781 " fill-opacity="1" fill-rule="nonzero"/></g></g></g></g></svg>